# xmcd
#
# Track frame offsets: 
#        150
#        16226
#        33771
#
# Disc length: 681 seconds
#
# Revision: 0
# Processed by: cddbd v1.5.2PL0 Copyright (c) Steve Scherf et al.
# Submitted via: ExactAudioCopy v0.95b4
#
DISCID=1402a703
DTITLE=Amy Winehouse - Rehab (Promo)
DYEAR=2007
DGENRE=R&B
TTITLE0=Rehab (Radio)
TTITLE1=Rehab (Radio RMX ft. Jay Z)
TTITLE2=Rehab (RMX ft. Jay Z)
EXTD=
EXTT0=
EXTT1=
EXTT2=
PLAYORDER=
